HIERARCHY
ROOT Pelvis
{
	OFFSET 0.000000 0.000000 0.000000
	CHANNELS 6 Xposition Yposition Zposition Xrotation Yrotation Zrotation
	JOINT LeftUpLeg_virtual
	{
		OFFSET 0.000000 0.000000 0.000000
		CHANNELS 3 Xrotation Yrotation Zrotation
		JOINT LeftUpLeg
		{
			OFFSET 8.479700 -4.795502 -0.379100
			CHANNELS 3 Xrotation Yrotation Zrotation
			JOINT LeftLeg
			{
				OFFSET 0.024144 -32.555107 0.112900
				CHANNELS 3 Xrotation Yrotation Zrotation
				JOINT LeftFoot
				{
					OFFSET -0.024144 -32.638630 -3.012600
					CHANNELS 3 Xrotation Yrotation Zrotation
					JOINT LeftToeBase
					{
						OFFSET 0.970200 -13.225400 11.864200
						CHANNELS 3 Xrotation Yrotation Zrotation
						End Site
						{
							OFFSET 0 0 0
						}
					}
				}
			}
		}
	}
	JOINT RightUpLeg_virtual
	{
		OFFSET 0.000000 0.000000 0.000000
		CHANNELS 3 Xrotation Yrotation Zrotation
		JOINT RightUpLeg
		{
			OFFSET -8.479700 -4.795502 -0.379100
			CHANNELS 3 Xrotation Yrotation Zrotation
			JOINT RightLeg
			{
				OFFSET -0.023144 -32.555092 0.112900
				CHANNELS 3 Xrotation Yrotation Zrotation
				JOINT RightFoot
				{
					OFFSET 0.023144 -32.638641 -3.012700
					CHANNELS 3 Xrotation Yrotation Zrotation
					JOINT RightToeBase
					{
						OFFSET -0.970200 -13.225400 11.864200
						CHANNELS 3 Xrotation Yrotation Zrotation
						End Site
						{
							OFFSET 0 0 0
						}
					}
				}
			}
		}
	}
	JOINT Hips_virtual
	{
		OFFSET 0.000000 0.000000 0.000000
		CHANNELS 3 Xrotation Yrotation Zrotation
		JOINT Hips
		{
			OFFSET -0.000000 -0.000000 -0.000000
			CHANNELS 3 Xrotation Yrotation Zrotation
			JOINT Spine
			{
				OFFSET 0.000000 7.722000 1.166200
				CHANNELS 3 Xrotation Yrotation Zrotation
				JOINT Spine1
				{
					OFFSET 0.000000 12.024101 0.248800
					CHANNELS 3 Xrotation Yrotation Zrotation
					JOINT Spine2
					{
						OFFSET 0.000000 11.502998 -0.491200
						CHANNELS 3 Xrotation Yrotation Zrotation
						JOINT Neck_virtual
						{
							OFFSET 0.000000 0.000000 0.000000
							CHANNELS 3 Xrotation Yrotation Zrotation
							JOINT Neck
							{
								OFFSET 0.000000 18.430702 -3.123100
								CHANNELS 3 Xrotation Yrotation Zrotation
								JOINT Head
								{
									OFFSET 0.000000 9.051102 1.034000
									CHANNELS 3 Xrotation Yrotation Zrotation
									End Site
									{
										OFFSET 0 0 0
									}
								}
							}
						}
						JOINT LeftShoulder_virtual
						{
							OFFSET 0.000000 0.000000 0.000000
							CHANNELS 3 Xrotation Yrotation Zrotation
							JOINT LeftShoulder
							{
								OFFSET 6.197800 13.665199 -4.064700
								CHANNELS 3 Xrotation Yrotation Zrotation
								JOINT LeftArm
								{
									OFFSET 7.778100 -0.187103 -1.709300
									CHANNELS 3 Xrotation Yrotation Zrotation
									JOINT LeftForeArm
									{
										OFFSET 22.049376 0.000000 0.000000
										CHANNELS 3 Xrotation Yrotation Zrotation
										JOINT LeftHand
										{
											OFFSET 23.009392 0.000000 0.000000
											CHANNELS 3 Xrotation Yrotation Zrotation
											End Site
											{
												OFFSET 0 0 0
											}
										}
									}
								}
							}
						}
						JOINT RightShoulder_virtual
						{
							OFFSET 0.000000 0.000000 0.000000
							CHANNELS 3 Xrotation Yrotation Zrotation
							JOINT RightShoulder
							{
								OFFSET -6.197800 13.665199 -4.064700
								CHANNELS 3 Xrotation Yrotation Zrotation
								JOINT RightArm
								{
									OFFSET -7.778100 -0.187103 -1.709300
									CHANNELS 3 Xrotation Yrotation Zrotation
									JOINT RightForeArm
									{
										OFFSET -22.049376 0.000000 0.000000
										CHANNELS 3 Xrotation Yrotation Zrotation
										JOINT RightHand
										{
											OFFSET -23.009392 0.000000 0.000000
											CHANNELS 3 Xrotation Yrotation Zrotation
											End Site
											{
												OFFSET 0 0 0
											}
										}
									}
								}
							}
						}
					}
				}
			}
		}
	}
}
MOTION
Frames: 13
Frame Time: 0.03333333
-0.093153 72.468597 -0.632437 0.000000 0.000000 0.000000 -14.105826 4.551980 -0.320197 -19.279983 -2.204203 14.171142 58.150209 -0.402691 0.374214 -24.411313 -1.511287 -11.774640 0.000000 0.000000 0.000000 -14.105826 4.551980 -0.320197 -15.740707 -9.794507 -15.694205 57.735179 0.101133 -0.385141 -26.972424 -3.746728 10.498038 0.000000 0.000000 0.000000 -14.105826 4.551980 -0.320197 -0.000001 0.000000 0.000000 20.016450 -0.033846 0.812619 6.967311 -0.338752 0.679832 0.000000 0.000000 0.000000 6.967508 -0.337003 0.677442 -12.249458 -1.248218 -0.496002 0.000000 0.000000 0.000000 6.967508 -0.337003 0.677442 3.082227 -9.945127 -6.811323 -13.959254 -7.908230 -60.295257 69.634209 -63.509134 71.597035 0.000000 0.000000 0.000000 6.967508 -0.337003 0.677442 8.709558 -2.418517 18.823131 -21.494481 12.934316 56.855509 76.344118 65.516998 -70.724532 0.000000 0.000000 0.000000 
-0.079099 72.433914 -0.588598 0.000000 0.000000 0.000000 -14.111054 4.577261 -0.347100 -19.305053 -2.219672 14.208029 58.286642 -0.387796 0.375405 -24.522339 -1.555814 -11.784463 0.000000 0.000000 0.000000 -14.111054 4.577261 -0.347100 -15.724060 -9.815848 -15.696873 57.816370 0.103381 -0.385991 -27.056755 -3.747803 10.524026 0.000000 0.000000 0.000000 -14.111054 4.577261 -0.347100 -0.000001 0.000000 0.000000 20.015574 -0.029289 0.830656 6.967177 -0.335988 0.689695 0.000000 0.000000 0.000000 6.967396 -0.333837 0.687154 -12.402456 -1.254038 -0.550726 0.000000 0.000000 0.000000 6.967396 -0.333837 0.687154 2.956826 -10.038397 -7.341125 -14.073641 -7.895410 -59.003682 69.357252 -63.656058 70.461215 0.000000 0.000000 0.000000 6.967396 -0.333837 0.687154 8.710146 -2.421087 18.860179 -21.489469 12.863790 56.693678 76.539346 65.641806 -70.847490 0.000000 0.000000 0.000000 
-0.052788 72.375496 -0.510357 0.000000 0.000000 0.000000 -14.124335 4.652490 -0.395846 -19.351488 -2.253187 14.275213 58.522372 -0.401932 0.376871 -24.712265 -1.624009 -11.780206 0.000000 0.000000 0.000000 -14.124335 4.652490 -0.395846 -15.673599 -9.871357 -15.698047 57.942926 0.101874 -0.387368 -27.202272 -3.762526 10.574430 0.000000 0.000000 0.000000 -14.124335 4.652490 -0.395846 0.000000 0.000000 0.000000 20.011372 -0.020228 0.866774 6.966028 -0.327721 0.719249 0.000000 0.000000 0.000000 6.966377 -0.324709 0.716456 -12.555785 -1.289426 -0.611312 0.000000 0.000000 0.000000 6.966377 -0.324709 0.716456 2.764794 -10.227420 -8.150476 -14.313656 -7.958069 -56.721856 68.594319 -63.723370 67.966352 0.000000 0.000000 0.000000 6.966377 -0.324709 0.716456 8.718468 -2.429203 18.921157 -21.496057 12.656111 56.308284 77.004044 65.942615 -71.153093 0.000000 0.000000 0.000000 
-0.024988 72.323196 -0.438690 0.000000 0.000000 0.000000 -14.144102 4.764676 -0.438733 -19.386322 -2.347841 14.302462 58.739490 -0.416450 0.378169 -24.881787 -1.655650 -11.772641 0.000000 0.000000 0.000000 -14.144102 4.764676 -0.438733 -15.599339 -9.933486 -15.692752 58.045331 0.099917 -0.388361 -27.334523 -3.813168 10.625215 0.000000 0.000000 0.000000 -14.144102 4.764676 -0.438733 -0.000001 0.000000 0.000000 20.004413 -0.008120 0.902247 6.959313 -0.313090 0.767879 0.000000 0.000000 0.000000 6.959677 -0.306489 0.764834 -12.549952 -1.367070 -0.625489 0.000000 0.000000 0.000000 6.959677 -0.306489 0.764834 2.605486 -10.449068 -8.667087 -14.613400 -8.282414 -54.611980 67.543925 -63.362524 64.922765 0.000000 0.000000 0.000000 6.959677 -0.306489 0.764834 8.730925 -2.444812 18.974045 -21.553777 12.391531 55.888911 77.539094 66.277287 -71.520652 0.000000 0.000000 0.000000 
0.004855 72.278831 -0.357224 0.000000 0.000000 0.000000 -14.169940 4.951594 -0.494775 -19.399503 -2.550671 14.297386 58.944334 -0.402038 0.379822 -25.046297 -1.671882 -11.780271 0.000000 0.000000 0.000000 -14.169940 4.951594 -0.494775 -15.472187 -10.069318 -15.680878 58.100068 0.104795 -0.388685 -27.463335 -3.884509 10.675341 0.000000 0.000000 0.000000 -14.169940 4.951594 -0.494775 0.000000 0.000000 0.000000 19.990297 0.008512 0.955483 6.937509 -0.293120 0.836672 0.000000 0.000000 0.000000 6.937985 -0.289781 0.834064 -12.503187 -1.468268 -0.642171 0.000000 0.000000 0.000000 6.937985 -0.289781 0.834064 2.431008 -10.738113 -9.036975 -14.974695 -8.818247 -52.449313 66.100112 -62.633729 61.042439 0.000000 0.000000 0.000000 6.937985 -0.289781 0.834064 8.767412 -2.495619 19.020526 -21.838847 11.822596 55.109832 78.559115 66.918246 -72.239564 0.000000 0.000000 0.000000 
0.032644 72.255501 -0.264669 0.000000 0.000000 0.000000 -14.204551 5.224379 -0.575372 -19.380190 -2.825849 14.298465 59.097686 -0.403242 0.381017 -25.185542 -1.688579 -11.783161 0.000000 0.000000 0.000000 -14.204551 5.224379 -0.575372 -15.265032 -10.315556 -15.651471 58.058807 0.107542 -0.387874 -27.568073 -3.953141 10.722439 0.000000 0.000000 0.000000 -14.204551 5.224379 -0.575372 0.000000 0.000000 0.000000 19.964283 0.020976 1.042301 6.896939 -0.293556 0.931055 0.000000 0.000000 0.000000 6.897607 -0.293065 0.928759 -12.237220 -1.598784 -0.565884 0.000000 0.000000 0.000000 6.897607 -0.293065 0.928759 2.270447 -11.090865 -9.178071 -15.385566 -9.489032 -50.404522 64.114740 -61.534028 56.183743 0.000000 0.000000 0.000000 6.897607 -0.293065 0.928759 8.842769 -2.599188 19.061600 -22.457389 10.729875 53.712826 80.552321 68.056811 -73.706443 0.000000 0.000000 0.000000 
0.061693 72.249397 -0.156717 0.000000 0.000000 0.000000 -14.234936 5.650181 -0.675359 -19.351311 -3.263863 14.259568 59.219045 -0.402689 0.381776 -25.302929 -1.690147 -11.788340 0.000000 0.000000 0.000000 -14.234936 5.650181 -0.675359 -14.978327 -10.723950 -15.623081 57.923016 0.114188 -0.385245 -27.661373 -4.037525 10.770163 0.000000 0.000000 0.000000 -14.234936 5.650181 -0.675359 0.000000 0.000000 0.000000 19.928926 0.010546 1.166093 6.839934 -0.351177 1.068725 0.000000 0.000000 0.000000 6.840725 -0.346987 1.066124 -11.868278 -1.759280 -0.434148 0.000000 0.000000 0.000000 6.840725 -0.346987 1.066124 2.111461 -11.543110 -9.212457 -15.811278 -10.260033 -48.386614 61.977014 -60.070653 50.772126 0.000000 0.000000 0.000000 6.840725 -0.346987 1.066124 8.956369 -2.757027 19.125566 -23.419085 9.145780 51.563574 83.811353 69.708494 -76.139199 0.000000 0.000000 0.000000 
0.091267 72.284233 -0.029659 0.000000 0.000000 0.000000 -14.247097 6.295409 -0.814765 -19.296883 -3.945742 14.166412 59.246154 -0.396283 0.381867 -25.361522 -1.658095 -11.798132 0.000000 0.000000 0.000000 -14.247097 6.295409 -0.814765 -14.567381 -11.389422 -15.580587 57.594238 0.133468 -0.379835 -27.705426 -4.135613 10.809677 0.000000 0.000000 0.000000 -14.247097 6.295409 -0.814765 0.000000 0.000000 0.000000 19.883417 -0.024142 1.337917 6.764568 -0.463651 1.275406 0.000000 0.000000 0.000000 6.765532 -0.457468 1.276658 -11.587903 -1.934155 -0.395673 0.000000 0.000000 0.000000 6.765532 -0.457468 1.276658 1.954848 -12.174489 -9.252939 -16.221716 -11.082044 -46.299516 59.860891 -58.221140 44.992577 0.000000 0.000000 0.000000 6.765532 -0.457468 1.276658 9.123372 -2.981276 19.240972 -24.792176 6.918175 48.252141 89.546184 72.019687 -80.558857 0.000000 0.000000 0.000000 
0.129407 72.371330 0.119696 0.000000 0.000000 0.000000 -14.240453 7.173287 -0.930699 -19.201701 -4.825094 13.957832 59.123907 -0.406298 0.381094 -25.334461 -1.599147 -11.784767 0.000000 0.000000 0.000000 -14.240453 7.173287 -0.930699 -14.015600 -12.265186 -15.563322 57.049401 0.134369 -0.372178 -27.689522 -4.269297 10.870613 0.000000 0.000000 0.000000 -14.240453 7.173287 -0.930699 -0.000001 0.000000 0.000000 19.832817 -0.102926 1.538235 6.679607 -0.664822 1.500897 0.000000 0.000000 0.000000 6.680941 -0.660218 1.497984 -11.358411 -2.140448 -0.267526 0.000000 0.000000 0.000000 6.680941 -0.660218 1.497984 1.789835 -12.847862 -9.248319 -16.587441 -11.925821 -44.313519 58.095950 -56.142355 39.239109 0.000000 0.000000 0.000000 6.680941 -0.660218 1.497984 9.320062 -3.255913 19.377694 -26.545511 4.429802 44.221397 98.063697 74.446685 -87.427357 0.000000 0.000000 0.000000 
0.187618 72.503151 0.293644 0.000000 0.000000 0.000000 -14.184818 8.349988 -0.968155 -19.118845 -5.963951 13.532159 58.866422 -0.417850 0.379080 -25.218411 -1.501828 -11.741379 0.000000 0.000000 0.000000 -14.184818 8.349988 -0.968155 -13.369913 -13.385626 -15.649230 56.315050 0.137254 -0.362001 -27.632611 -4.465071 10.963546 0.000000 0.000000 0.000000 -14.184818 8.349988 -0.968155 0.000000 0.000000 0.000000 19.787036 -0.257461 1.756404 6.602244 -1.007846 1.714568 0.000000 0.000000 0.000000 6.603863 -1.010249 1.691005 -11.235499 -2.375926 0.130081 0.000000 0.000000 0.000000 6.603863 -1.010249 1.691005 1.669235 -13.423057 -8.870075 -16.860585 -12.769840 -42.598189 56.911544 -53.978237 33.758794 0.000000 0.000000 0.000000 6.603863 -1.010249 1.691005 9.549766 -3.546338 19.487831 -28.419913 1.955770 39.633819 109.682798 76.609007 -97.115625 0.000000 0.000000 0.000000 
0.253723 72.682190 0.489124 0.000000 0.000000 0.000000 -14.051647 9.730671 -0.931331 -19.066977 -7.254032 12.947792 58.443989 -0.417741 0.375723 -25.005224 -1.405564 -11.686354 0.000000 0.000000 0.000000 -14.051647 9.730671 -0.931331 -12.695238 -14.701661 -15.821102 55.401860 0.158447 -0.349392 -27.523309 -4.693359 11.065025 0.000000 0.000000 0.000000 -14.051647 9.730671 -0.931331 -0.000001 0.000000 0.000000 19.731926 -0.452651 1.975087 6.504437 -1.431119 1.882393 0.000000 0.000000 0.000000 6.507064 -1.425644 1.878500 -11.121218 -2.676902 0.656104 0.000000 0.000000 0.000000 6.507064 -1.425644 1.878500 1.588962 -13.978033 -8.328291 -17.056996 -13.550103 -41.040284 56.173248 -51.841918 28.627777 0.000000 0.000000 0.000000 6.507064 -1.425644 1.878500 9.792470 -3.914210 19.480529 -31.132685 -0.339093 35.023444 124.315494 78.102079 -109.822058 0.000000 0.000000 0.000000 
0.317147 72.907578 0.708773 0.000000 0.000000 0.000000 -13.848531 11.284090 -0.793305 -19.040667 -8.618926 12.222840 57.830638 -0.426391 0.370881 -24.686720 -1.339970 -11.618399 0.000000 0.000000 0.000000 -13.848531 11.284090 -0.793305 -11.998835 -16.156995 -16.071608 54.328062 0.170342 -0.335030 -27.369492 -4.959408 11.180927 0.000000 0.000000 0.000000 -13.848531 11.284090 -0.793305 0.000000 0.000000 0.000000 19.652824 -0.673443 2.175861 6.357045 -1.897645 2.000315 0.000000 0.000000 0.000000 6.361401 -1.884731 2.017058 -10.871272 -3.072097 1.237502 0.000000 0.000000 0.000000 6.361401 -1.884731 2.017058 1.499336 -14.560942 -7.972533 -17.183771 -14.291292 -39.589388 55.819407 -49.877388 23.942274 0.000000 0.000000 0.000000 6.361401 -1.884731 2.017058 10.087647 -4.376650 19.142309 -34.954924 -1.973000 30.661679 139.445525 78.771527 -123.174115 0.000000 0.000000 0.000000 
0.382678 73.176300 0.947596 0.000000 0.000000 0.000000 -13.563396 12.889652 -0.597287 -19.044459 -9.938893 11.445761 57.035706 -0.434319 0.364670 -24.281128 -1.334625 -11.540919 0.000000 0.000000 0.000000 -13.563396 12.889652 -0.597287 -11.327366 -17.689790 -16.366419 53.100718 0.181274 -0.318921 -27.149317 -5.211265 11.304498 0.000000 0.000000 0.000000 -13.563396 12.889652 -0.597287 -0.000001 0.000000 0.000000 19.558897 -0.892268 2.346722 6.178184 -2.345255 2.098795 0.000000 0.000000 0.000000 6.182865 -2.338604 2.094054 -10.676281 -3.576426 1.858446 0.000000 0.000000 0.000000 6.182865 -2.338604 2.094054 1.404411 -15.136531 -7.787823 -17.214669 -14.704912 -38.224467 55.783914 -48.087940 19.885734 0.000000 0.000000 0.000000 6.182865 -2.338604 2.094054 10.461298 -5.010223 18.057335 -40.871046 -3.435841 27.351766 152.786783 78.755838 -135.528001 0.000000 0.000000 0.000000 
